<?xml version="1.0" standalone="no"?>
<!DOCTYPE svg PUBLIC "-//W3C//DTD SVG 20010904//EN"
 "http://www.w3.org/TR/2001/REC-SVG-20010904/DTD/svg10.dtd">
<svg version="1.0" xmlns="http://www.w3.org/2000/svg"
 width="700.000000pt" height="700.000000pt" viewBox="0 0 700.000000 700.000000"
 preserveAspectRatio="xMidYMid meet">
<metadata>
Created by potrace 1.11, written by Peter Selinger 2001-2013
</metadata>
<g transform="translate(0.000000,700.000000) scale(0.100000,-0.100000)"
fill="#000000" stroke="none">
<path d="M5409 6255 c-39 -21 -59 -59 -59 -111 0 -46 1 -47 137 -185 l137
-140 -18 -142 c-31 -235 -31 -237 -4 -277 33 -49 90 -68 140 -47 58 24 68 47
93 211 l7 39 111 -110 c62 -61 123 -118 137 -127 36 -24 240 -23 281 1 38 23
63 76 56 121 -12 68 -68 102 -169 102 l-63 0 -90 90 c-49 49 -87 91 -84 93 2
3 47 11 99 20 84 14 98 20 123 47 53 60 25 168 -51 190 -29 9 -75 6 -217 -14
l-180 -25 -130 128 c-71 71 -140 134 -152 140 -29 15 -72 13 -104 -4z"/>
<path d="M3295 6034 c-16 -2 -70 -9 -120 -15 -444 -54 -906 -250 -1264 -537
-395 -316 -697 -764 -844 -1252 -68 -225 -97 -407 -104 -660 -23 -826 348
-1597 1007 -2094 693 -523 1587 -657 2406 -361 126 46 353 157 469 230 561
353 960 904 1119 1545 49 195 66 321 73 530 19 579 -159 1143 -506 1605 -363
482 -894 825 -1478 954 -186 42 -286 53 -508 56 -121 2 -233 1 -250 -1z m530
-259 c131 -18 248 -46 387 -91 l113 -37 -129 -43 -130 -42 45 -12 c77 -21 250
-90 364 -145 183 -88 327 -192 515 -371 l75 -71 105 -6 105 -6 33 -38 c51 -58
174 -246 230 -353 91 -173 168 -391 212 -600 22 -108 26 -96 -62 -201 l-52
-63 -1 -221 c0 -244 -6 -273 -63 -314 -36 -25 -72 -27 -118 -5 -60 29 -74 75
-63 204 4 52 6 97 4 99 -8 7 -114 -167 -145 -239 -18 -41 -52 -133 -76 -203
-47 -139 -99 -244 -172 -347 -135 -190 -231 -246 -406 -238 -76 3 -102 9 -159
35 -141 67 -238 198 -245 336 -7 122 30 235 106 319 20 22 77 68 127 101 197
133 299 267 361 474 23 75 27 107 27 213 0 154 -18 226 -98 395 -156 327 -151
431 23 543 l54 34 -24 25 c-74 79 -294 224 -463 304 -125 59 -305 123 -409
145 -94 20 -135 51 -145 108 -3 20 -9 37 -13 36 -5 0 -32 0 -61 0 -49 0 -53
-2 -66 -31 -16 -37 -65 -69 -106 -69 -41 0 -90 32 -106 69 -12 28 -18 31 -57
31 -113 0 -417 62 -582 118 l-85 29 126 41 c162 52 354 90 539 106 83 7 384
-4 485 -19z m-1905 -1029 c110 -75 228 -197 272 -281 74 -142 68 -266 -21
-483 -35 -85 -99 -193 -224 -381 -155 -232 -202 -359 -180 -485 13 -76 45
-142 138 -286 176 -270 209 -420 139 -628 -25 -75 -90 -207 -141 -284 l-26
-39 -25 23 c-13 13 -63 68 -109 123 -432 512 -620 1203 -507 1859 58 336 202
680 401 957 l35 49 87 -46 c47 -26 120 -70 161 -98z m1857 -3271 c155 -20 283
-48 418 -92 l110 -36 -85 -29 c-230 -77 -441 -111 -705 -111 -282 -1 -513 35
-750 116 l-70 24 95 31 c141 47 300 80 495 105 83 11 385 6 492 -8z"/>
</g>
</svg>
